<?xml version="1.0" encoding="UTF-8"?>
<svg id="Camada_1" data-name="Camada 1" xmlns="http://www.w3.org/2000/svg" viewBox="0 0 169.75 78.25">
  <defs>
    <style>
      .cls-1 {
        fill: #171717;
      }

      .cls-2 {
        fill: #f9f9f9;
      }

      .cls-3 {
        fill: #212121;
      }

      .cls-4 {
        fill: #1a1a1a;
      }

      .cls-5 {
        fill: #161616;
      }
    </style>
  </defs>
  <path class="cls-5" d="M72.5.1c6.93.93,8.77,10.74,2.92,14.28-.46.28-2.4,1.2-2.8,1.2h-7.88V.1c2.42.23,5.4-.31,7.75,0ZM68.25,12.33h3.62c.33,0,1.95-.9,2.26-1.24,1.64-1.75,1.6-5.39-.4-6.86-.23-.17-1.71-.89-1.86-.89h-3.62v8.99Z"/>
  <path class="cls-5" d="M4.75.1c.55,1.97.11,4.2.25,6.24h6.5c.14-2.04-.3-4.27.25-6.24h2.75c.48.24.48.35.52.85.38,4.68-.32,9.9-.02,14.63h-3.5v-5.87c0-.18-.42-.34-.63-.37-.83-.15-4.1-.12-5.01-.01-.25.03-.86.11-.86.39v5.87H1.5V.1h3.25Z"/>
  <path class="cls-1" d="M0,38.55l4.99-7.61c-1.18-2.62-3.11-4.85-4.49-7.37h4c.31.63,2.61,4.68,2.88,4.74.35.08.43-.2.58-.41.41-.55,2.41-4.33,2.66-4.33h3.62l-4.5,7.37,5,7.86h-4c-.81-1.73-1.93-3.31-2.94-4.92-.4-.64-.6-.36-1.03.09-.66.7-2.49,4.59-2.83,4.78-.54.31-3.12-.12-3.95.05v-.25Z"/>
  <polygon class="cls-4" points="169.75 38.8 160 38.8 160 23.57 169.5 23.57 169.5 26.57 163.5 26.57 163.5 29.56 169.25 29.56 169.25 32.56 163.5 32.56 163.5 35.81 169.75 35.8 169.75 38.8"/>
  <path class="cls-3" d="M20.25,78.25c-6.78-2.54-5.13-13.02,2.81-11.68,1.72.29,3.66,2.38,3.44,4.18-1.8.41-1.17-.97-2.11-2.01-.39-.43-1.21-.88-1.78-.97-6.37-1.01-6.71,8.48-1.71,9.2,2.34.34,4.96-.37,4.35-3.22h-3.62c-.47,0-.47-1.25,0-1.25h5.5c.33,0,.46.92.38,1.25-1.81-.39-.59,1.31-1.13,2.49-.42.92-2.05,1.52-2.87,2h-3.25Z"/>
  <path class="cls-2" d="M11.75.1c-.55,1.97-.11,4.2-.25,6.24h-6.5c-.14-2.04.3-4.27-.25-6.24h7Z"/>
  <path class="cls-3" d="M67.5,78.25c-3.97-1.34-5.23-6.63-2.75-9.86s9.26-2.37,9.25,2.37c-1.72.33-1.17-.56-1.79-1.59-.89-1.46-2.94-1.68-4.47-1.29-4.57,1.16-3.56,10.86,2.9,8.89,2.58-.79,1.29-2.92,3.61-2.76-.01,1.49-1.04,3.08-2.4,3.72l-1.6.52h-2.75Z"/>
  <rect class="cls-3" x="24.25" y=".1" width="9.5" height=".25"/>
  <rect class="cls-3" x="46" y=".1" width="5.75" height=".25"/>
  <polygon class="cls-5" points="119 23.57 124.75 36.05 124.75 23.57 128 23.57 128 38.8 122.38 38.8 116.81 26.89 116.25 26.57 116.25 38.8 113 38.8 113 23.57 119 23.57"/>
  <path class="cls-5" d="M68.12,23.32c2.63.31,4.69,1.87,4.88,4.61.18,2.59-.31,4.34-2.76,5.5l3.75,5.37h-3.88c-.64,0-2.68-4.53-3.75-4.74-.64-.12-1.45.07-2.12,0v4.74h-3.5v-15.48c2.34.2,5.09-.27,7.38,0ZM64.25,31.06h3.88c.5,0,1.22-1.19,1.32-1.68.69-3.37-2.87-3.2-5.19-3.06v4.74Z"/>
  <path class="cls-1" d="M151.75,29.31h-3.75c-.13,0-.08-1.44-1.16-2.21-4.17-2.95-8.1,1.91-6.35,6.34,1.22,3.08,5.72,3.44,7.48.7.25-.4.23-1.09.28-1.09h3.5c-.06,4.39-4.35,6.61-8.37,6.24-9.87-.92-9.43-17.91,2.68-16.16,3.13.45,5.37,3.1,5.69,6.18Z"/>
  <path class="cls-5" d="M51.75.35l5.25,15.23h-3.75l-1.02-3.72-6.5.12-.97,3.6h-3.5c1.23-5.14,3.22-10.15,4.75-15.23h5.75ZM51,8.84c-.31-1.49-.82-3.78-1.48-5.14-.39-.8-.74-.98-1.13-.11-.73,1.65-.98,3.56-1.64,5.24h4.25Z"/>
  <path class="cls-4" d="M26,34.56v4.24h-3.5v-15.48h7.12c.28,0,2.19.74,2.55.95,3.19,1.86,3.19,7.48,0,9.34-.36.21-2.27.95-2.55.95h-3.62ZM26,31.31c6.62,1.27,6.7-6.03,0-4.74v4.74Z"/>
  <polygon class="cls-4" points="104.25 23.57 104.25 26.57 98.25 26.57 98.25 29.56 104 29.56 104 32.56 98.25 32.56 98.25 35.8 104.5 35.8 104.5 38.8 94.75 38.8 94.75 23.57 104.25 23.57"/>
  <path class="cls-4" d="M52,23.57v3h-6v3h5.75v3h-5.75v3.25h5.88c.59,0,.33,2.46.38,3h-9.75v-15.23h9.5Z"/>
  <polygon class="cls-1" points="33.75 .35 33.75 3.1 27.75 3.1 27.75 6.34 33.5 6.34 33.5 9.34 27.75 9.34 27.75 12.58 34 12.58 34 15.58 24.25 15.58 24.25 .35 33.75 .35"/>
  <rect class="cls-5" x="82" y="23.57" width="3.5" height="15.23"/>
  <path class="cls-3" d="M55.5,76.5v-9.74h1.25v11.24l-2.21-.04-6.04-9.95v9.99h-1.25v-11.24c.73.09,1.82-.25,2.38.25,1.9,3.19,3.65,6.51,5.87,9.49Z"/>
  <path class="cls-3" d="M10.01,55.54c.11-.11,1.17.05,1.49,0-.09,2.19-2.28,4.03-4.37,4.24-7.96.82-8.65-11.17-1.43-11.93,2.24-.23,5.24,1.19,5.51,3.63.09.8-.68,1.1-1.23.7-.45-.32-.21-2.49-2.62-2.87-3.94-.62-5.52,2-5.11,5.6.34,2.95,3.33,4.38,6,3.25,1.82-.77,1.56-2.41,1.76-2.61Z"/>
  <path class="cls-3" d="M23.12,48.29c3.12.62,3.05,6.09-.12,6.86.41.37,3.53,4.13,3.25,4.37-.47-.03-1.07.13-1.5-.13-.6-.36-2.45-3.68-3-3.99-.62-.34-1.78-.03-2.5-.13v4.24h-1.25v-11.24c1.51.21,3.72-.28,5.12,0ZM19.25,54.03c6.67,1.29,6.34-5.86,0-4.74v4.74Z"/>
  <path class="cls-3" d="M55.5,59.52c-2.29,1.01-1.85-3.1-2.91-3.46-.53-.18-4.95-.11-5.22.22-.86,1.03-.39,3.87-2.37,3.25l4-11.11c.58-.17,2.02-.31,2.38.12l4.12,10.99ZM52.25,54.78c-.55-1.48-1.01-3.52-1.74-4.88-.17-.31-.16-.62-.63-.62-.29,0-1.68,4.86-1.88,5.5h4.25Z"/>
  <path class="cls-3" d="M6.72,66.8c.5.32,3.51,9.85,4.03,11.2-2,.58-1.64-2.25-2.47-3.34-.3-.39-4.64-.05-5.5-.13-.11.47-.92,3.32-1.05,3.44-.17.14-.91-.02-1.22.03l3.78-11.21c.09-.08,2.31-.08,2.44,0ZM7.75,73.26l-2.13-5.24c-.4-.1-.51.33-.64.61-.61,1.26-1.11,3.25-1.48,4.64h4.25Z"/>
  <path class="cls-3" d="M104.5,48.29v1.25h-5v3.5h4.38c.33,0,.46.92.38,1.25h-4.75v3.99h5.25v1.25h-6.75v-11.24h6.5Z"/>
  <path class="cls-3" d="M40.25,66.76v1.25h-5v3.75h4.75c.08.33-.05,1.25-.38,1.25h-4.38v3.75h5.25v1.25h-6.75v-11.24h6.5Z"/>
  <path class="cls-3" d="M83.21,48.32c.42.26,2.64,8.04,3.27,9.34.14.29.21.67.64.61l3.15-9.96,1.47-.02c-.51,1.3-3.34,11.01-3.91,11.2-.32.11-1.94.14-2.12-.11l-3.66-10.27-.06-.81c.34.05.97-.12,1.22.03Z"/>
  <path class="cls-4" d="M39,48.29s.05,1,0,1h-5v3.99h4.75c.05,0,.05,1,0,1h-4.75v3.99h5.25v1.25h-6.5v-11.24c.82.17,6.03-.22,6.25,0Z"/>
  <path class="cls-3" d="M84.75,78c-2.5.48-1.17-2.56-1.5-4.07-.05-.2-.41-.2-.49-.36-.56-1.09-3.32-5.93-3.26-6.68.15-.24,1.05-.18,1.21-.09.26.16,2.29,4.67,2.72,5.39.36.6.9.41,1.29-.09.81-1.04,1.68-4.46,2.4-5.09.42-.37.89-.25,1.38-.25.07.35-.08.62-.19.93-.44,1.21-2.05,4.42-2.75,5.5-.37.57-.81.51-.81.56v4.24Z"/>
  <path class="cls-4" d="M68,48.29s.05,1,0,1h-3.5v10.24h-1.25v-9.86c0-.72-3.33-.2-3.5-.38-.03-.04-.05-1,0-1,1.1,0,7.96-.3,8.25,0Z"/>
  <rect class="cls-3" x="74.25" y="48.29" width="1.25" height="11.24"/>
</svg>