<?xml version="1.0" encoding="UTF-8"?>
<svg id="Camada_1" data-name="Camada 1" xmlns="http://www.w3.org/2000/svg" viewBox="0 0 257.25 37">
  <defs>
    <style>
      .cls-1 {
        fill: #181818;
      }

      .cls-2 {
        fill: #898989;
      }

      .cls-3 {
        fill: #1c1c1c;
      }

      .cls-4 {
        fill: #2f2f2f;
      }

      .cls-5 {
        fill: #171717;
      }

      .cls-6 {
        fill: #202020;
      }

      .cls-7 {
        fill: #1a1a1a;
      }

      .cls-8 {
        fill: #1d1d1d;
      }

      .cls-9 {
        fill: #232323;
      }

      .cls-10 {
        fill: #f4f4f4;
      }

      .cls-11 {
        fill: #292929;
      }

      .cls-12 {
        fill: #fafafa;
      }

      .cls-13 {
        fill: #242424;
      }

      .cls-14 {
        fill: #fdfdfd;
      }

      .cls-15 {
        fill: #161616;
      }
    </style>
  </defs>
  <path class="cls-1" d="M232.25.02c.54.03,2.15.43,2.74.63,2.29.77,4.37,3.41,4.26,5.86h-3.5c-.16,0-.42-1.82-1.83-2.55-6.93-3.57-9.26,10.25-.82,9.02,2.38-.34,2.54-2.51,3.05-2.69.77-.27,2.44.12,3.34-.03-.59,6.63-9.9,8.37-13.71,3.33S224.56.58,231.25.02c.32-.03.68-.02,1,0Z"/>
  <path class="cls-5" d="M257,.77v2.75h-6s0,3.25,0,3.25h5.75v3h-5.75v3.25s6.25,0,6.25,0v3h-9.75V.52c3.15.14,6.4-.3,9.5.25Z"/>
  <path class="cls-6" d="M138.5,37c-3.81-.98-5.59-4.51-4.37-8.24,1.65-5.08,9.5-5.02,10.12.5-1.69.3-1.24-.54-1.78-1.34-.94-1.37-2.36-1.87-3.98-1.55-5.49,1.1-3.97,11.57,3.01,9.01,1.92-.7,1.79-3.12,1.13-3.12h-3.62c-.05,0-.05-1,0-1h6c.4,1.36-.76.82-.97,1.4s.09,1.56-.03,2.22c-.23,1.2-2.54,1.66-3.5,2.13h-2Z"/>
  <polygon class="cls-12" points="257 3.52 257.25 3.52 257.25 13.01 251 13.01 251 9.76 256.75 9.76 256.75 6.76 251 6.76 251 3.51 257 3.52"/>
  <path class="cls-8" d="M0,29.25c1.4-5.37,9.74-5.93,10.5,0-1.7.3-1.24-.54-1.78-1.34-2.89-4.22-9.16-.13-6.97,5.22,1.05,2.57,4.88,3.52,6.76,1.49.99-1.06.13-2.33,2.24-1.88-.38,2.42-2.02,3.62-4.25,4.25h-2c-2.36-.8-3.61-2.21-4.5-4.5v-3.25Z"/>
  <path class="cls-6" d="M185.75,37c-3.84-1.08-5.54-5.21-3.97-8.84,1.96-4.55,9.54-4.14,9.97,1.1-1.86.36-1.26-1.39-2.76-2.36-4.17-2.69-8.13,2.7-5.65,6.89,1.46,2.46,5.83,2.6,7.05-.03.44-.95-.45-1.18,1.61-1-.26,1.5-1.12,2.92-2.5,3.63l-2,.62h-1.75Z"/>
  <path class="cls-12" d="M4.5,37H0v-4.5c.89,2.29,2.14,3.7,4.5,4.5Z"/>
  <path class="cls-10" d="M70.75.02v.25c-2.19-.16-4.54.11-6.75,0V.02h6.75Z"/>
  <rect class="cls-2" x="257" y=".77" width=".25" height="2.75"/>
  <path class="cls-7" d="M206.5.52l5.75,12.49V.89c0-.63,2.96-.3,3.5-.37v15.49h-6l-5.75-12.49v12.49h-3.25V.52h5.75Z"/>
  <path class="cls-7" d="M161.5,16.01h-3.88c-.31,0-2.69-4.41-3.18-4.69-.44-.25-1.84.06-2.45-.06v4.75h-3.75V.52h7.88c.1,0,1.64.52,1.88.62,3.85,1.73,3.62,7.56.01,9.49-.05.53,3.49,4.28,3.49,5.38ZM152,8.26c2.34-.06,5.24.68,5.02-2.63-.16-2.51-3.17-2.14-5.02-2.11v4.75Z"/>
  <path class="cls-15" d="M70.75.27c5.49.39,8.02,4.23,7.19,9.56-.39,2.52-3.73,5.93-6.31,5.93h-7.62V.27c2.21.11,4.56-.16,6.75,0ZM67.5,12.51c4.11.44,7.63-.8,6.98-5.6-.17-1.26-1.85-3.39-3.1-3.39h-3.88v9Z"/>
  <path class="cls-5" d="M4.25.27v5.87s.35.37.38.37h5.75s.38-.35.38-.37V.27h3.5v15.49h-3.5v-6.25h-6.5v6.25H.75V.27h3.5Z"/>
  <path class="cls-1" d="M56.25,15.76h-3.75l-1.02-3.72c-.93.08-6.24-.25-6.5.12-.44.64-.66,3.15-1.22,3.48-.65.39-2.65-.03-3.5.12L45.4.25c1.03.2,5.24-.33,5.73.26l5.12,15.25ZM50.25,9.01c-.31-1.5-.82-3.78-1.48-5.14-.39-.81-.74-.98-1.13-.11-.73,1.65-.98,3.56-1.64,5.25h4.25Z"/>
  <path class="cls-15" d="M113.75,11.76v4.25h-3.5V.52h7.12c.17,0,1.95.63,2.21.79,1.04.6,2.22,2.15,2.39,3.36.79,5.81-3.13,7.41-8.23,7.1ZM113.75,8.51c6.5,1.16,6.45-6.04,0-5v5Z"/>
  <path class="cls-1" d="M92,.52c.21.13,2.06,3.7,2.53,4.34.45.6.73.6,1.18,0,.42-.56,2.36-4.34,2.66-4.34h3.62l-4.37,7.01-.13.59,5,7.89h-3.88c-.3,0-2.64-4.44-3.25-4.99-.24-.22-.38-.33-.74-.27-.3.05-2.92,5.26-3.26,5.26h-3.62l4.96-7.92c.1-.66-4.45-6.24-4.46-7.58.66.15,3.43-.2,3.75,0Z"/>
  <path class="cls-3" d="M192,.52v3h-5.88c-.61,0-.31,2.69-.38,3.25h5.75v3h-5.75v3.25h6.25v3h-9.75V.89s.35-.37.38-.37h9.38Z"/>
  <polygon class="cls-7" points="139.5 .52 139.5 3.52 133.5 3.52 133.5 6.76 139.25 6.76 139.25 9.76 133.5 9.76 133.5 13.01 139.75 13.01 139.75 16.01 130 16.01 130 .52 139.5 .52"/>
  <polygon class="cls-5" points="33 .27 33 3.27 27 3.27 27 6.51 32.75 6.51 32.75 9.26 27 9.26 27 12.76 33.25 12.76 33.25 15.76 23.5 15.76 23.5 .27 33 .27"/>
  <rect class="cls-1" x="169.5" y=".52" width="3.5" height="15.49"/>
  <path class="cls-9" d="M173.25,35.25v-10h1.25v11.24c-.73-.09-1.82.25-2.38-.25l-5.87-9.5v9.75h-1.25v-11.24c.76.06,1.69-.25,2.26.36,1.99,3.21,3.71,6.62,5.99,9.63Z"/>
  <path class="cls-6" d="M21.62,25.26c3.55.5,4.34,5.76.88,6.75-.44.49,2.79,3.66,3,4.49-2.3.8-3.33-3.3-4.5-3.87-.66-.32-1.76-.03-2.5-.12v4h-1.25v-11.24c1.37.14,3.05-.19,4.38,0ZM18.5,26.5v4.75c1.94.11,4.79.3,4.77-2.37-.02-2.85-2.68-2.39-4.77-2.37Z"/>
  <path class="cls-9" d="M38.5,26.5h-5.25v3.75h4.75v1.25h-4.75v4h5.25c.08.33-.05,1.25-.38,1.25h-6s-.38-.35-.38-.37v-10.74s.35-.37.38-.37h6c.33,0,.46.92.38,1.25Z"/>
  <path class="cls-4" d="M103.75,25.26v1.25h-5v3.75h4.75v1.25h-4.75v4h5.25c.08.33-.05,1.25-.38,1.25h-6s-.38-.35-.38-.37v-11.12h6.5Z"/>
  <path class="cls-11" d="M158,25.26v1.25h-5v3.75h4.38c.47,0,.47,1.25,0,1.25h-4.38v4h5.25c.08.33-.05,1.25-.38,1.25h-6s-.38-.35-.38-.37v-11.12h6.5Z"/>
  <path class="cls-8" d="M128.5,36.5c-2.47.61-1.41-3.28-3.36-3.51-.61-.07-4.07-.06-4.39.14-.52.31-1.06,3.17-1.27,3.35-.17.15-.91-.02-1.22.03.28-1.39,3.49-10.82,4-11.12.45-.27,1.93-.29,2.23.28l4.02,10.85ZM121,32h4.5c-.3-.65-1.83-5.5-2.13-5.5-.47,0-.48.29-.64.61-.74,1.52-1.05,3.34-1.73,4.89Z"/>
  <path class="cls-8" d="M50.47,25.29l4.03,11.21c-2.06.86-1.72-3.38-2.86-3.52-.6-.07-4.63-.04-4.9.13-.76.51-.47,4.19-2.49,3.38l3.97-11.09,2.24-.12ZM51.5,32c-.5-1.43-.99-3.65-1.7-4.92-.15-.28-.28-.63-.67-.58l-1.88,5.5h4.25Z"/>
  <path class="cls-6" d="M91,25.26l-3.62,11c-.3.36-2.02.38-2.39.13-.49-.33-3.39-9.81-3.99-11.13.53,0,1.18-.15,1.48.39l3.65,9.84,3.5-9.99,1.38-.24Z"/>
  <path class="cls-13" d="M201,32.25s-.45,0-.72-.4c-.33-.49-3.56-6.35-3.28-6.6.49,0,.96-.13,1.38.25.99.88,2,4.5,2.85,5.59.29.37.83.28,1.1-.16.89-1.46,1.75-4.34,2.65-5.53.27-.36.9-.09,1.27-.15.05.28-.03.5-.11.76-.3.95-2.33,4.98-2.92,5.84-.27.4-.72.36-.72.4v4.12c0,.5-1.5.5-1.5,0,0-.63.11-3.95,0-4.12Z"/>
  <path class="cls-13" d="M67.25,25.26v1.25h-3.5v9.87c0,.5-1.5.5-1.5,0v-9.87h-3.5c-.08-.33.05-1.25.38-1.25h8.12Z"/>
  <rect class="cls-6" x="73.5" y="25.26" width="1.25" height="11.24"/>
  <path class="cls-14" d="M18.5,26.5c2.1-.02,4.76-.48,4.77,2.37.01,2.68-2.83,2.49-4.77,2.37v-4.75Z"/>
</svg>