<?xml version="1.0" encoding="UTF-8"?>
<svg id="Camada_1" data-name="Camada 1" xmlns="http://www.w3.org/2000/svg" viewBox="0 0 650 127">
  <defs>
    <style>
      .cls-1 {
        fill: #181818;
      }

      .cls-2 {
        fill: #121212;
      }

      .cls-3 {
        fill: #272727;
      }

      .cls-4 {
        fill: #4d4d4d;
      }

      .cls-5 {
        fill: #131313;
      }

      .cls-6 {
        fill: #171717;
      }

      .cls-7 {
        fill: #202020;
      }

      .cls-8 {
        fill: #1a1a1a;
      }

      .cls-9 {
        fill: #1b1b1b;
      }

      .cls-10 {
        fill: #888;
      }

      .cls-11 {
        fill: #161616;
      }
    </style>
  </defs>
  <path class="cls-2" d="M155.5,0v127h-25l.03-46.09c.74-7.4,6.65-10.87,10.95-16-.66-.61-4.38-4.72-4.82-4.64-3.4,2.92-6.13,7.07-10.28,8.99-.87.4-3.95,1.5-4.75,1.5H25v56H.25V.25h24.75l-.03,46.09c-.76,7.25-6.78,10.68-10.95,15.75.66.61,4.38,4.72,4.82,4.64,3.69-3.25,6.58-7.63,11.34-9.42.81-.31,3.21-1.06,3.94-1.06h96.38V0h25Z"/>
  <path class="cls-8" d="M650,61h-10v-15.12s.35-.38.38-.38h9.38c-.06.56.24,3.25-.38,3.25h-5.62v3h5.75v3h-5.75v3.25s6.25,0,6.25,0v3Z"/>
  <rect class="cls-4" y=".25" width=".25" height="126.5"/>
  <rect class="cls-10" x="290.25" width="35.25" height=".25"/>
  <rect class="cls-10" x="170.5" y="126.75" width="35.25" height=".25"/>
  <polygon class="cls-10" points="25 0 25 .25 .25 .25 0 .25 0 0 25 0"/>
  <polygon class="cls-10" points="25 126.75 25 127 0 127 0 126.75 .25 126.75 25 126.75"/>
  <rect class="cls-10" x="170.5" width="22.25" height=".25"/>
  <rect class="cls-10" x="303" y="126.75" width="22.25" height=".25"/>
  <path class="cls-5" d="M192.75.25l46.88,38.99c1.93,1.91,4.87,6.93,4.87,9.63v7.38h7v-12.12c0-1.99,2.54-6.54,3.87-8.13L290.25.25h35.25c-22.37,23.31-45,46.42-67.63,69.5l-.64,1.35,68.02,55.66h-22.25l-46.88-38.99c-1.94-1.94-4.87-6.9-4.87-9.63v-7.38h-6.75v11.88c0,2.23-2.41,6.64-3.87,8.38l-34.88,35.75h-35.25c18.84-19.53,37.81-38.95,56.74-58.38,3.91-4.01,8.03-7.8,11.75-11.99L170.99.88l-.49-.63h22.25Z"/>
  <polygon class="cls-6" points="598.88 45.5 605 58.25 605 45.5 608.25 45.5 608.25 61 602.62 61 596.5 48.5 596.5 61 593.25 61 593.25 45.5 598.88 45.5"/>
  <path class="cls-8" d="M456.5,60.75v-15.38s.35-.38.38-.38h6.25c7.15,0,10.38,9.43,4.96,13.96-.68.57-2.9,1.79-3.71,1.79h-7.88ZM460.25,57.5c3.7.25,6.96-.51,6.76-4.89-.19-4-3.45-4.34-6.76-4.11v9Z"/>
  <path class="cls-9" d="M397,45.25v6h6.25v-6c.75.12,3.29-.27,3.64.23.6.86-.21,12.83.07,14.86-.26.8-2.95.26-3.72.41v-6.25h-6.25v6.25h-3.75v-15.5h3.75Z"/>
  <path class="cls-11" d="M554.25,61h-4.25c-.51-.98-2.52-4.58-3.38-4.75-.64-.12-1.45.07-2.12,0v4.75h-3.5v-15.5h7.62c.39,0,2.44.84,2.86,1.14,2.8,2,2.36,7.62-.98,8.98l3.75,5.38ZM544.5,53.25h3.62c.76,0,1.63-1.6,1.63-2.38s-.87-2.38-1.63-2.38h-3.62v4.75Z"/>
  <path class="cls-6" d="M631.75,51.5h-3.5c-.13,0-.08-1.44-1.16-2.21-4.67-3.31-8.94,3.12-5.84,7.34,1.4,1.9,5.36,1.94,6.71-.04.25-.37.47-1.33.54-1.33h3.5c-.27,6.17-8.55,8.07-12.75,4.38-3.42-3.01-3.49-9.77.02-12.73,4.18-3.52,12.58-1.65,12.48,4.6Z"/>
  <path class="cls-1" d="M433,60.75l4.87-15.25c.49-.59,4.69-.06,5.73-.26l5.15,15.51c-.79-.15-2.95.26-3.51-.11-.44-.29-.82-2.92-1.21-3.49-.26-.38-5.57-.05-6.5-.12l-1.02,3.73h-3.5ZM438.75,54h4.25c-.34-.7-1.6-5.68-1.89-5.76-.12-.04-.76-.02-.84.04-.23.19-1.39,4.97-1.53,5.72Z"/>
  <path class="cls-11" d="M506.25,56.75v4.25h-3.5v-15.5h7.38c1.32,0,3.5,1.7,4.08,2.92,2.66,5.54-2.88,9.21-7.96,8.33ZM506.25,53.5c2.22-.06,4.77.69,4.77-2.37s-2.52-2.69-4.77-2.63v5Z"/>
  <path class="cls-9" d="M584.5,45.5v3.25h-6v3h5.75v3h-5.75v3.25h6.25v3h-10v-15.12s.35-.38.38-.38h9.38Z"/>
  <path class="cls-9" d="M532.25,45.5c-.06.56.24,3.25-.38,3.25h-5.62v3h5.75c-.05.53.22,3-.38,3h-5.38v3.25h5.88c.59,0,.33,2.47.38,3h-10v-15.5h9.75Z"/>
  <path class="cls-1" d="M484.38,45.5c.3.1,2.43,3.81,2.82,4.43.12.19-.06.41.44.33.7-.12,2.71-3.89,3.12-4.76h3.75c-1.06,2.75-3.26,4.94-4.49,7.63l4.99,7.87h-4c-.4-.8-2.98-5.37-3.6-5.24-.58.12-3.06,5.24-3.53,5.24h-3.62l4.96-8.08-4.46-7.42c.94.18,2.84-.25,3.62,0Z"/>
  <polygon class="cls-1" points="425.5 45.25 425.5 48.25 419.5 48.25 419.5 51.5 425.25 51.5 425.25 54.25 419.5 54.25 419.5 57.75 425.75 57.75 425.75 60.75 416 60.75 416 45.25 425.5 45.25"/>
  <rect class="cls-1" x="562.25" y="45.5" width="3.5" height="15.5"/>
  <path class="cls-3" d="M557.5,70.25l2.2.05,6.05,9.95v-10h1.25v11.5c-.7-.06-1.56.23-2.12-.25l-5.88-9.5v9.38c0,.5-1.5.5-1.5,0v-11.12Z"/>
  <path class="cls-7" d="M537.75,76.25c.44,1.26-.95,1.16-1.02,1.4-.42,1.47.83,2.08-1.31,3.4-5.43,3.35-11.22-2.41-8.38-8.13,2.14-4.31,9.46-3.83,9.71,1.33-1.78.44-1.19-1.03-2.15-1.98-1.16-1.16-3.28-1.18-4.69-.48-4.13,2.05-2.31,10.55,3.89,8.64,1.73-.54,1.85-1.16,1.7-2.93h-3.62c-.47,0-.47-1.25,0-1.25h5.88Z"/>
  <path class="cls-7" d="M414.38,70.25c3.7.61,3.85,5.65.63,7.12.33.63,3.44,3.95,2.99,4.37-2.07.56-3.27-3.56-4.5-4.12-.7-.32-1.73-.04-2.5-.13v4.25c-.33.08-1.25-.05-1.25-.38v-11.12c1.42.16,3.28-.22,4.62,0ZM411,76.25c1.95.08,4.97.37,4.97-2.38s-3.02-2.45-4.97-2.38v4.75Z"/>
  <path class="cls-7" d="M403,74.25c-1.66.27-1.09-.31-1.65-1.22-1.77-2.88-6.39-2-7.18,1.27-.96,4,1.29,7.2,5.59,6.09,2.21-.58,1.4-2.98,3.49-2.63-.54,4.57-6.61,5.63-9.38,2.25-2.35-2.86-1.66-8.14,1.96-9.56,3.12-1.22,7.05.1,7.18,3.8Z"/>
  <path class="cls-7" d="M584.25,74.25c-1.78.42-1.09-.9-2-1.88-1.24-1.33-3.68-1.29-5.18-.42-2.35,1.36-2.43,5.85-.55,7.65,1.35,1.29,4.59,1.34,5.86-.09.81-.91.36-2.12,2.11-1.76-.39,4.23-5.71,5.48-8.75,2.88s-2.58-8,.82-9.93c3.01-1.71,7.69-.25,7.68,3.55Z"/>
  <path class="cls-9" d="M447.25,81.75c-1.88.47-1.97-2.19-2.53-3.47h-5.31c-.93.32-.62,4.32-2.66,3.47l4.03-11.46c.61-.02,1.97-.24,2.34.21l4.12,11.25ZM439.75,77h4.25c-.05-.69-1.61-5.39-1.88-5.5-.2-.08-.48-.09-.63.17-.67,1.2-1.12,3.95-1.75,5.33Z"/>
  <path class="cls-9" d="M516.96,70.29l4.03,11.46c-1.82.56-1.81-3.17-2.66-3.47l-5.19-.05c-.39.1-.68,4.23-2.4,3.51l3.87-11.25c.38-.46,1.73-.23,2.34-.21ZM518,77c-.47-1.51-1-3.51-1.74-4.89-.17-.32-.15-.61-.63-.62-.29,0-1.82,4.88-1.88,5.5h4.25Z"/>
  <path class="cls-7" d="M496.5,71.5h-5.25v3.75h4.75v1.25h-4.75v4h5.25v1.25h-6.38s-.38-.35-.38-.38v-10.75s.35-.38.38-.38h6c.33,0,.46.92.38,1.25Z"/>
  <path class="cls-3" d="M550.5,70.25v1.25h-5v3.75h4.75v1.25h-4.75v4h5.25v1.25h-6.38s-.38-.35-.38-.38v-10.75s.35-.38.38-.38h6.12Z"/>
  <path class="cls-7" d="M431,70.25v1.25h-5.25v3.75h4.75v1.25h-4.75v4h5.5c.08.33-.05,1.25-.38,1.25h-6.38v-11.5h6.5Z"/>
  <path class="cls-7" d="M474.96,70.29l3.91,10.22,3.35-10.1,1.28-.15c-.4,1.36-3.33,11.27-3.91,11.46s-1.96.19-2.15-.53l-3.64-10.12-.06-.82,1.22.03Z"/>
  <path class="cls-7" d="M593.5,77.25s-.36.07-.5-.17c-1.27-2.09-2.13-4.42-3.49-6.46-.19-.64,1.35-.44,1.52-.21.88,1.17,1.72,3.94,2.67,5.27.54.75.71.93,1.18.08.43-.77,2.41-5.31,2.67-5.47s.86,0,1.21-.04c.05.28-.03.5-.11.76-.32,1.01-2.21,4.73-2.83,5.68-.37.57-.81.51-.81.56v4.12c0,.5-1.5.5-1.5,0,0-.63.1-3.95,0-4.12Z"/>
  <polygon class="cls-9" points="459.75 70.25 459.75 71.5 456.25 71.5 456.25 81.75 455 81.75 455 71.5 451.5 71.5 451.5 70.25 459.75 70.25"/>
  <path class="cls-3" d="M466,70.25c.36-.07,1.5,0,1.5.38v10.75c0,.5-1.5.5-1.5,0v-11.12Z"/>
</svg>