<?xml version="1.0" encoding="UTF-8"?>
<svg id="Camada_1" data-name="Camada 1" xmlns="http://www.w3.org/2000/svg" viewBox="0 0 562.25 127">
  <defs>
    <style>
      .cls-1 {
        fill: #181818;
      }

      .cls-2 {
        fill: #131313;
      }
    </style>
  </defs>
  <path class="cls-2" d="M.25.25h24.75v46.62c0,.42-.96,3.21-1.2,3.8-1.91,4.59-6.59,7.84-9.78,11.49-.06.33,4.23,4.6,4.61,4.6,3.11-2.32,5.42-5.88,8.8-7.96,1.76-1.08,5.41-2.55,7.45-2.55h95.62V.25h25v126.75h-25l.03-46.09c.76-7.04,6.5-11.05,10.95-15.81.06-.36-3.91-4.25-4.61-4.6-.55,0-5.19,5.08-6.12,5.89-3.47,3.01-6.76,4.33-11.38,4.62H25s0,56,0,56H.25V.25Z"/>
  <path class="cls-2" d="M170.5,127l68.5-70.62L170.25.25h22.62c15.9,13.71,32.51,26.62,48.12,40.63,1.26,1.57,3.51,6.06,3.51,7.99v7.38h7v-11.88c0-2.35,2.59-6.81,4.12-8.63L290.38.25h35.38l-68.75,70.62,68.25,56.13h-22.25l-46-38.37c-2.48-2.01-5.75-7.32-5.75-10.5v-7.12h-6.75v11.62c0,2.92-2.97,7.47-4.87,9.63-9.53,10.83-21.17,21.02-31.14,31.61-.91.97-1.79,2.16-2.74,3.13h-35.25Z"/>
  <polygon class="cls-1" points="562.25 63.25 552.5 63.25 552.5 48 562 48 562 50.75 556 50.75 556 54 561.75 54 561.75 57 556 57 556 60.25 562.25 60.25 562.25 63.25"/>
  <rect class="cls-1" y=".25" width=".25" height="126.75"/>
  <polygon class="cls-1" points="511.5 48 517.25 60.25 517.25 48 520.75 48 520.75 63.25 514.75 63.25 509 51 509 63.25 505.75 63.25 505.75 48 511.5 48"/>
  <path class="cls-1" d="M457.25,40v-15.5h7.88c.34,0,2.12.73,2.55.95,5.1,2.67,5.13,10.69.16,13.5-.35.2-2.24,1.05-2.45,1.05h-8.12ZM461,36.75c3.27.23,6.58-.16,6.76-4.11.21-4.5-2.99-5.12-6.76-4.89v9Z"/>
  <path class="cls-1" d="M397.75,24.5v6h6.25v-6c.61.08,3.75-.27,3.75.38v15.12h-3.75v-6h-6.25v6h-3.75v-15.5h3.75Z"/>
  <path class="cls-1" d="M466.5,63.25h-3.88c-.4,0-2.84-4.5-3.18-4.7-.45-.26-2.06.08-2.7-.05v4.75h-3.5v-15.5h7.62c.4,0,2.42.84,2.86,1.14,3.06,2.12,2.53,7.28-.73,9l3.5,5.36ZM456.75,50.75v4.62c0,.53,2.59.42,3.1.35,1.95-.28,2.97-2.37,1.79-3.99-.15-.2-1.11-.98-1.27-.98h-3.62Z"/>
  <path class="cls-1" d="M544.25,53.75c-.91-.15-2.56.24-3.34-.03-.44-.15-.5-1.02-.79-1.46-.58-.86-1.98-1.47-3-1.52-6.51-.36-5.75,11.82,1.44,9.44,1.89-.63,2.26-2.53,2.6-2.65.79-.27,2.43.12,3.34-.03-1.81,9.72-16,7.74-15.51-2.39.46-9.55,13.93-10.61,15.26-1.37Z"/>
  <path class="cls-1" d="M433.75,40l4.87-15.25c.42-.51,4.7-.22,5.63-.13,1.91,5.03,3.76,10.18,5.24,15.38-.79-.15-2.95.26-3.51-.11-.44-.29-.82-2.92-1.21-3.49-.26-.38-5.57-.05-6.5-.12l-1.02,3.73h-3.5ZM439.5,33.25h4.25c-.34-.7-1.6-5.68-1.89-5.76-.11-.03-.82,0-.85.03l-1.51,5.74Z"/>
  <path class="cls-1" d="M418.75,59v4.25h-3.5v-15.5h6.88c.52,0,2.2.71,2.71,1.04,1.17.77,2.01,1.92,2.17,3.33.65,5.69-3.27,7.23-8.25,6.88ZM418.75,51v4.75c1.99.11,4.79.37,4.77-2.38-.01-2.91-2.67-2.39-4.77-2.37Z"/>
  <path class="cls-1" d="M497,51h-6.25v3h5.62c.56,0,.56,3,0,3h-5.62v3.25h6.25v3.25h-9.38s-.38-.35-.38-.38v-15s.35-.38.38-.38h9c.61,0,.31,2.69.38,3.25Z"/>
  <path class="cls-1" d="M396.88,48c.36.11,2.59,4.11,3,4.75,1.03,0,2.83-4.75,3.12-4.75h3.75l-4.42,7.37,4.92,7.88h-3.62c-.3,0-2.86-4.36-3.25-5l-.74-.26c-.52.6-2.95,5.26-3.26,5.26h-3.62c.41-1.73,4.69-6.61,4.76-7.9.06-1.24-3.98-5.69-4.26-7.35.94.18,2.84-.25,3.62,0Z"/>
  <polygon class="cls-1" points="426.25 24.5 426.25 27.5 420.25 27.5 420.25 30.75 426 30.75 426 33.75 420.25 33.75 420.25 37 426.5 37 426.5 40 416.75 40 416.75 24.5 426.25 24.5"/>
  <polygon class="cls-1" points="444.5 48 444.5 51 438.5 51 438.5 54 444.25 54 444.25 57 438.5 57 438.5 60.25 444.75 60.25 444.75 63.25 435 63.25 435 48 444.5 48"/>
  <rect class="cls-1" x="474.5" y="48" width="3.5" height="15.25"/>
  <path class="cls-1" d="M439.75,91.25c.76.08,1.77-.25,2.37.25l5.88,9.5v-9.75h1.5v10.88c0,.46-2,.59-2.37.12l-5.88-9.5v9.38c0,.5-1.5.5-1.5,0v-10.88Z"/>
  <path class="cls-1" d="M419.62,97c.41.12.42.86.38,1.25-1.76-.39-.69,1.35-1.05,2.57-.48,1.62-4.14,2.07-5.55,1.9-5.28-.64-6.39-8.29-2.09-11.03,2.87-1.83,8.01-.34,7.69,3.56-1.8.19-.98-.17-1.36-1.01s-1.43-1.76-2.32-1.94c-7.39-1.52-7.01,11.36.82,8.96,1.87-.57,1.72-1.2,1.61-3.02h-3.75v-1.25c1.43.27,4.42-.37,5.62,0Z"/>
  <path class="cls-1" d="M415.62,72.75c3.08.55,3.25,5.92.13,6.87.22.62,3.4,4.01,2.99,4.38-.42-.06-1.1.14-1.45-.05-.43-.24-2.38-3.74-3.05-4.07s-1.76-.03-2.5-.12v4.25h-1.25v-11.25c1.55.19,3.66-.26,5.12,0ZM411.75,78.5c6.72,1.25,6.59-5.91,0-4.75v4.75Z"/>
  <path class="cls-1" d="M403.75,76.75c-.08.08-.79,0-1-.12-.71-.42-.43-2.57-3.12-2.88-4.05-.46-5.65,2.8-4.64,6.39.85,2.99,5.07,3.94,7.01,1.49.77-.97.38-1.98,2-1.62-.36,4.77-6.83,5.71-9.5,2.12-3.67-4.92,1.01-12.02,6.97-9.22.96.45,3.05,3.08,2.27,3.85Z"/>
  <path class="cls-1" d="M466.75,95.25c-2.08.2-1.18-.09-1.69-1.18-1.64-3.5-7.82-2.14-7.57,3.07.19,4.04,5.06,6.07,7.38,3.11.8-1.02.15-2.11,1.89-1.74.18,2.24-2.03,4.02-4.12,4.25-8.11.87-8.48-10.86-2.23-11.73,3.26-.45,5.91.76,6.35,4.23Z"/>
  <path class="cls-1" d="M448,84c-1.99.45-1.94-2.14-2.53-3.47-.83.06-5.25-.25-5.5.12-.76,1.11-.42,3.87-2.47,3.35.57-1.34,3.53-10.89,4.04-11.21.27-.17,2.23-.19,2.44.35l4.02,10.85ZM440.5,79.25h4.25c-.05-.68-1.61-5.16-1.88-5.25-.66-.22-.49.03-.65.36-.7,1.47-1.13,3.34-1.73,4.89Z"/>
  <path class="cls-1" d="M403.5,102.5c-.35-.07-1.29.13-1.47-.03-.13-.11-.8-2.8-1.15-3.22-.29-.35-5-.39-5.39-.13-.76.51-.47,4.19-2.49,3.38.48-1.35,3.5-10.81,3.99-11.13.37-.25,2.09-.23,2.39.13l4.12,11ZM396,97.75h4.25c-.49-1.54-1.04-3.45-1.73-4.89-.16-.33.02-.59-.65-.36-.26.09-1.67,4.59-1.88,5.25Z"/>
  <path class="cls-1" d="M433,91.25c.14.14-.06,1.25-.38,1.25h-4.88v3.75h4.75c.08.33-.05,1.25-.38,1.25h-4.38v3.75h5.25v1.25h-6.5v-11.25c.85.18,6.27-.23,6.5,0Z"/>
  <path class="cls-1" d="M479.25,82.75c.36.35.43-.09.56-.32,1.38-2.52,1.78-6.73,3.06-9.44l1.38-.24c-.59,1.32-3.08,11.11-3.65,11.26-.21.06-2.24.04-2.32-.04l-3.77-11.22,1.38.24,3.37,9.75Z"/>
  <path class="cls-1" d="M431.75,72.75s.05,1,0,1h-5.25v4h4.75c.05,0,.05,1,0,1h-4.75v4h5.25v1.25h-6.5v-11.25c.85.18,6.27-.23,6.5,0Z"/>
  <path class="cls-1" d="M497,72.75s.05,1,0,1h-5v4h4.75c.05,0,.05,1,0,1h-4.75v4h5.25v1.25h-6.5v-11.25c.82.17,6.03-.22,6.25,0Z"/>
  <path class="cls-1" d="M476,98.25s-.41-.02-.6-.26c-.67-.84-2.81-4.78-3.2-5.81-.12-.31-.26-.57-.19-.93.49,0,.96-.12,1.38.25.39.35,1.98,4.02,2.57,4.93.54.83.81.83,1.35,0,.87-1.33,1.59-3.92,2.42-5.02.27-.36.9-.09,1.27-.15.05.28-.03.5-.11.76-.3.95-2.33,4.98-2.92,5.84-.27.4-.72.36-.72.4v4.25h-1.25c0-.64.12-4.07,0-4.25Z"/>
  <path class="cls-2" d="M460.5,72.75s.05,1,0,1h-3.5v10.25h-1.25v-10.25h-3.5c-.05,0-.05-1,0-1,1.1,0,7.96-.3,8.25,0Z"/>
  <rect class="cls-1" x="466.75" y="72.75" width="1.5" height="11.25"/>
</svg>